<svg xmlns="http://www.w3.org/2000/svg" width="204.997" height="220.308" viewBox="0 0 204.997 220.308"><defs><clipPath id="a"><path data-name="Rectangle 14" fill="#222" d="M0 0h156.838v180.686H0z"/></clipPath></defs><g data-name="Group 356" transform="translate(-1037.671 -2225.635)"><circle data-name="Ellipse 4" cx="86" cy="86" r="86" transform="translate(1051 2252)" fill="#e47b2c"/><g data-name="Group 5"><g data-name="Group 4" clip-path="url(#a)" fill="#222" transform="rotate(-18.01 7698.482 -2137.364)"><path data-name="Path 3" d="M69.445 15.644a31.589 31.589 0 1 0 31.588 31.59 31.626 31.626 0 0 0-31.588-31.59m0 59.982a28.393 28.393 0 1 1 28.392-28.392 28.425 28.425 0 0 1-28.392 28.392"/><path data-name="Path 4" d="m5.787 163.977 24.767-12.444 8.5 26.38a4.014 4.014 0 0 0 3.619 2.768h.187a3.994 3.994 0 0 0 3.668-2.413l29.685-68.82L112.484 175a3.995 3.995 0 0 0 7.41-1.128l5.588-27.147 25.969 9.684a4 4 0 0 0 4.913-5.642l-44.586-82.6A47.24 47.24 0 1 0 34.013 78.42L.308 158.863a4 4 0 0 0 5.479 5.114m75.906-73.289a1.51 1.51 0 0 0 .075-.355 45 45 0 0 0 25.4-18.924l42.249 78.269-26.354-9.828a1.6 1.6 0 0 0-2.124 1.175l-5.658 27.482-37.742-68.2Zm-38.619 81.463-8.625-26.771a1.6 1.6 0 0 0-2.239-.938l-25.072 12.6L39.265 80.36a44.716 44.716 0 0 0 38.707 10.886Zm26.371-83.278a41.639 41.639 0 1 1 41.638-41.638 41.687 41.687 0 0 1-41.638 41.638"/></g></g></g></svg>