<svg xmlns="http://www.w3.org/2000/svg" width="220.215" height="172.437" viewBox="0 0 220.215 172.437"><defs><clipPath id="a"><path data-name="Rectangle 16" fill="#222" d="M0 0h220.215v160.019H0z"/></clipPath></defs><g data-name="Group 355" transform="translate(-669.23 -2251.563)"><circle data-name="Ellipse 4" cx="86" cy="86" r="86" transform="translate(697 2252)" fill="#e47b2c"/><g data-name="Group 12"><g data-name="Group 8" transform="translate(669.23 2251.563)" clip-path="url(#a)"><path data-name="Path 14" d="M31.335 83.722a3.579 3.579 0 0 0 4.238 1.114l5.579-2.4 17.543 19.22c-3.144 3.584-8.326 10.714-6.863 17.449 1.078 4.965 3.785 8.939 7.439 10.924-.573 5.588 2.256 10.654 5.35 13.721a13.578 13.578 0 0 0 9.352 4.343 9.211 9.211 0 0 0 2.114-.241A17.779 17.779 0 0 0 82.7 153.9c4.127 2.218 8.618 2.642 11.926 1.1a8.92 8.92 0 0 0 4.206 3.731 16.153 16.153 0 0 0 6.718 1.29 29.335 29.335 0 0 0 13.547-3.584 12.458 12.458 0 0 0 4.7 1.768c5.013.7 8.1-2.946 9.446-5.148 3.428-.357 9.309-1.606 12.257-5.918a9.815 9.815 0 0 0 3.916-1.71 17.993 17.993 0 0 0 6.06-7.747c.032-.014.066-.029.1-.042 3.507-1.547 8.373-6.721 9.154-10.828.542-2.854-.351-6.3-1.2-8.689l22.149-27.43 7.545 2.6a3.543 3.543 0 0 0 3.711-.9C219.2 69.817 219.468 69.268 219.8 68.569c.979-2.06.878-3.107-7.822-17.891-2.557-4.349-8.954-15.018-13.078-20.178-6.76-8.462-28.116-24.252-29.018-24.916a3.579 3.579 0 0 0-4.613.31l-27.231 26.19a4.027 4.027 0 0 0-.65 4.9l3.978 6.786-18.493 14.991a89.606 89.606 0 0 0-9.78-9.873c-4.618-3.688-16.823-3.38-22.8-2.978l-4.16-4.074 1.55-3.025a4.047 4.047 0 0 0-.353-4.243L62.484 1.484a3.549 3.549 0 0 0-4.929-.835L1.661 39.393a3.909 3.909 0 0 0-1.62 2.666 4.018 4.018 0 0 0 .81 3.051Zm172.91-6.322c-3.416 3.491-7.1 7.241-10.255 10.443l-8.355-2.884c-3.742-10.595-29.351-35.3-38.3-41.361l-4.911-8.374L157.318 20.9c14.851 11.073 43.434 46.441 46.927 56.5m-44.7-58.64 8.333-8.015c4.281 3.208 21.536 16.324 27.068 23.247 5.829 7.3 17.818 28.238 19.85 32.506-1.243 1.344-4.451 4.656-8.286 8.585-5.524-12.547-32.77-45.383-46.966-56.323m23.263 67.093-23.9 29.6c-2.445-1.414-8.457-4.767-11.793-5.53a4.6 4.6 0 0 0-4.818 2.1 11.547 11.547 0 0 0-1.828 6.373c-.421-.436-.787-.8-1.036-1.026-1.349-1.211-3.438-.955-5.59.683a11.94 11.94 0 0 0-4.631 8.3 5.714 5.714 0 0 0-5.108.8c-2.675 1.833-4.386 5.586-4.78 8.864-1.311-.6-2.895-.18-4.352 1.181-2 1.872-4.037 5.906-2.673 8.616a24.735 24.735 0 0 0 4.387 5.806c-5.382 2.884-12.027 3.849-15.8 2.129a3.455 3.455 0 0 1-1.975-1.876 3.746 3.746 0 0 1 .031-2.3 134.618 134.618 0 0 0 15.71-14.314 1.61 1.61 0 0 0 0-2.195 1.425 1.425 0 0 0-2.087 0c-6.172 6.513-15.059 14.594-19.989 16.951-1.878.894-4.758.529-7.521-.953a11.423 11.423 0 0 1-5.357-5.543 220 220 0 0 0 24.047-18.247 1.611 1.611 0 0 0 .152-2.19 1.431 1.431 0 0 0-2.084-.16c-5.672 5.158-19.871 16.088-26 19.31-2.062 1.083-5.065.127-7.647-2.435s-4.551-6.75-3.484-10.643c.183.009.36.031.545.031a16.575 16.575 0 0 0 6.889-1.715A83.433 83.433 0 0 0 90.1 116.064a1.61 1.61 0 0 0 .2-2.185 1.433 1.433 0 0 0-2.08-.206 81.924 81.924 0 0 1-17.291 10.956c-3.673 1.7-6.773 1.906-9.213.612-3.313-1.751-4.494-5.72-4.846-7.345-.787-3.623 2.291-8.673 5.4-12.29a1.537 1.537 0 0 0 .66.8 1.415 1.415 0 0 0 1.445-.022L113.679 76.3c2.273 3.207 9.034 12.04 16.722 15.434 5.173 2.285 8.527.75 10.431-.939 2.511-2.226 3.71-5.94 3.254-8.015-.469-2.14-3.147-3.787-7.176-6.056a26.174 26.174 0 0 1-3.206-1.973c-1.264-1.086-3.524-5.141-4.65-7.439a1.527 1.527 0 0 0-.416-.522l-3.621-2.912 21.31-17.275c9.8 6.9 33.155 30.03 36.481 39.245M144.244 122.5a9.282 9.282 0 0 1 .407-8.6c.846-1.172 1.6-1 1.839-.944 3.246.742 9.907 4.574 11.619 5.578.672 1.586 1.94 5.173 1.551 7.213-.468 2.459-4.964 6.742-6.435 7.012a833.26 833.26 0 0 0-8.983-10.256m-.074 19.246a166.453 166.453 0 0 0-11.153-12.895c-.21-.22-.425-.4-.639-.594-.768-2.41.61-5.217 2.393-6.983 1.4-1.386 2.52-1.655 2.75-1.543.707.635 2.391 2.459 4.411 4.714l.009.008a782.887 782.887 0 0 1 8.981 10.255c-.251 1.712-2.031 4.557-4.375 6.2a3.518 3.518 0 0 1-2.377.841m-13.368 6.015-.4-.331c-.868-1.006-5.019-5.8-8.066-8.867-.647-2.341.9-7.115 3.386-8.821.6-.411 2.409-1.65 5.211 1.3 5.564 5.851 9.372 10.626 10.7 12.335-1.709 3.557-8.19 4.375-10.7 4.38-.044 0-.09 0-.133.006m-1.918 2.365c-.771 1.291-2.208 2.98-4.406 2.685-3.8-.532-8.183-5.712-9.567-8.461-.43-.855.495-3.408 2.03-4.844a2.135 2.135 0 0 1 1.129-.664.2.2 0 0 1 .117.029c1.913 1.383 7.945 8.222 10.108 10.739a1.556 1.556 0 0 0 .189.185Zm-2.3-81.082c.707 1.412 3.3 6.43 5.251 8.11a26.166 26.166 0 0 0 3.68 2.306c1.754.986 5.4 3.039 5.694 4.015a6.74 6.74 0 0 1-2.278 4.943c-1.856 1.645-4.339 1.8-7.385.453-8.466-3.741-16.16-15.383-16.237-15.5a1.436 1.436 0 0 0-1.957-.464l-48.371 29.5-.058-1.234a1.6 1.6 0 0 0-.409-1l-20.136-22.06C52.4 72.35 75.9 52.5 81.752 44.969l6.191 6.067a1.431 1.431 0 0 0 1.128.411c6.514-.565 17.955-.585 20.9 1.765 4.318 3.45 10.494 10.852 10.556 10.927a1.416 1.416 0 0 0 .216.211ZM80.233 41.893C77.533 47.164 48.1 72.147 41.4 76.459l-6.78 2.917-18.577-23.528C28.2 48.9 59.37 22.568 66.387 15.45L82.67 37.136Zm-66.11 11.523L5.88 42.975 59.268 5.968l5.3 7.057C59.252 18.479 26.136 46.9 14.123 53.416" fill="#222"/></g></g></g></svg>