<svg xmlns="http://www.w3.org/2000/svg" width="139.121" height="131" viewBox="0 0 139.121 131"><defs><clipPath id="a"><path data-name="Rectangle 22" fill="#222" d="M0 0h139.121v115.175H0z"/></clipPath></defs><g data-name="Group 360" transform="translate(-893.733 -3790)"><circle data-name="Ellipse 3" cx="65.5" cy="65.5" r="65.5" transform="translate(895 3790)" fill="#f8ee1e"/><g data-name="Group 21" transform="translate(893.733 3792.638)" clip-path="url(#a)"><path data-name="Path 24" d="M3.551 115.175h90.082a3.554 3.554 0 0 0 3.551-3.551V65.112l41.135-50.385a3.547 3.547 0 0 0-.361-4.874L128.137.926a3.549 3.549 0 0 0-5.114.345l-25.839 30.89V16.628a3.555 3.555 0 0 0-3.551-3.551H3.551A3.555 3.555 0 0 0 0 16.628v95a3.554 3.554 0 0 0 3.551 3.551M92.213 41.42 67.206 71.314 44.153 55.733a1.419 1.419 0 0 0-1.836.212c-8.692 9.379-8.9 10-9.013 10.339a1.423 1.423 0 0 0 .548 1.625L70.245 92.69a1.417 1.417 0 0 0 1.9-.276l20.068-24.582V110.2H4.969V18.048h87.244ZM125.885 5.6l7.732 7.029L70.766 89.61 36.7 66.408c1.344-1.576 4.133-4.664 6.878-7.638l23.1 15.617a1.425 1.425 0 0 0 1.885-.266Z" fill="#222"/></g></g></svg>