<svg xmlns="http://www.w3.org/2000/svg" width="172" height="182.898" viewBox="0 0 172 182.898"><defs><clipPath id="a"><path data-name="Rectangle 23" fill="#222" d="M0 0h144.173v181.453H0z"/></clipPath><clipPath id="b"><path data-name="Rectangle 17" fill="#222" d="M0 0h77.366v73.932H0z"/></clipPath></defs><g data-name="Group 354" transform="translate(-343 -2241.102)"><circle data-name="Ellipse 4" cx="86" cy="86" r="86" transform="translate(343 2252)" fill="#e47b2c"/><g data-name="Group 24"><g data-name="Group 23" clip-path="url(#a)" transform="translate(356.913 2241.102)"><path data-name="Path 25" d="M143.745 102.553c-.412-2.611-1.239-6.226-2.13-10.118-1.047-4.572-2.126-9.3-2.435-12.076-.357-3.2-2.54-5.862-6.221-7.639 2.95-5.07 3.75-13.278 3.964-16.915.354-6.02-5.908-18.216-15.583-30.347-5.169-6.484-18.624-21.852-31.852-24.521C67.442-3.51 25.3 7.636 6.714 39.4c-16.955 28.986 3.044 70.279 7.226 78.264 3.217 6.141 13 24.826 10.11 42.2-.8 4.812.218 8.937 3.033 12.26 7.9 9.327 28.183 9.327 40.3 9.327l1.785-.006c.988-.06 24.313-1.506 34.011-4.426 10.415-3.136 10.338-15.381 10.282-24.323v-.183a215.238 215.238 0 0 1 0-3.594c.083-5.365 7.757-7.255 11.448-8.164a8.368 8.368 0 0 0 3.168-1.148c2.8-2.1 1.367-9.284.626-12.264a6.839 6.839 0 0 0 3.119-3.485 4.812 4.812 0 0 0-1.182-4.359c1.886-1.3 2.5-3.668 3.06-5.812a69.5 69.5 0 0 1 .445-1.654c.665-.433 3.316-.8 6.192-.4a3.139 3.139 0 0 0 2.837-1.1c.955-1.118 1.382-2.843.571-7.98M129.6 112.626c-.648 2.49-.951 3.377-1.817 3.564a16.106 16.106 0 0 0-3.542 1.136 1.2 1.2 0 0 0-.542.567l-.243.065.166.137a1.161 1.161 0 0 0-.046.232 1.21 1.21 0 0 0 .527 1.081 12.934 12.934 0 0 1 3.616 3.321 7.485 7.485 0 0 1-1.5 1.187c-1.1.739-2.761 1.856-1.9 3.359.546 1.117 1.482 7.473 1.1 8.972-.332.108-.961.262-1.53.4-4.347 1.071-14.53 3.581-14.664 12.208-.018 1.244-.01 2.543 0 3.866.053 8.861.11 18.024-7.271 20.246C92.9 175.7 70 177.155 68.946 177.222h-.718c-11.7 0-31.273.008-37.918-7.832-2-2.362-2.685-5.251-2.089-8.829 3.128-18.771-7.153-38.4-10.534-44.859-4-7.635-23.154-47.1-7.322-74.163C25.519 15.634 57.165 4.2 78.964 4.2a49.335 49.335 0 0 1 9.686.884c18.81 3.795 44.629 40.641 44.05 50.471-.626 10.643-3.427 16.834-5.746 17.255a1.209 1.209 0 0 0 .022 2.384c.076.011 7.52 1.338 8 5.63.338 3.028 1.452 7.9 2.529 12.6.862 3.768 1.677 7.328 2.065 9.784a21.774 21.774 0 0 1 .371 4.123c-2.536-.226-8.719-.38-9.8 3.336-.2.7-.372 1.35-.529 1.952" fill="#222"/></g></g><g data-name="Group 25"><g data-name="Group 10" transform="translate(389.552 2291.354)" clip-path="url(#b)"><path data-name="Path 15" d="M74.7 10.472C71.093 4.013 64.713 0 58.049 0 48.3 0 41.548 6.523 38.683 9.94 35.819 6.523 29.07 0 19.316 0 12.652 0 6.272 4.013 2.664 10.473a19.815 19.815 0 0 0 .266 20.3C8.877 40.428 25.854 59.4 34.036 68.547 35.783 70.5 37.763 72.712 37.98 73a1.968 1.968 0 0 0 .376.418l.392.266a1.673 1.673 0 0 0 .226.1l.194.068a2.178 2.178 0 0 0 .384.068l.169.008.189-.01a2.082 2.082 0 0 0 .355-.065l.171-.058a2.13 2.13 0 0 0 .261-.115l.337-.2.05-.06a1.9 1.9 0 0 0 .374-.415c.2-.276 1.852-2.271 3.456-4.2l.106-.128c7.609-9.155 23.44-28.2 29.416-37.9a19.819 19.819 0 0 0 .266-20.3m-35.956 3.654a.825.825 0 0 0 .726-.372c.07-.108 7.061-10.824 18.577-10.824 5.516 0 11.047 3.521 14.09 8.969a16.919 16.919 0 0 1-.2 17.332C66.074 38.752 49.744 58.4 42.772 66.792c-1.495 1.8-2.478 2.983-3.07 3.711a432.664 432.664 0 0 0-3.5-3.934c-8.1-9.057-24.965-27.9-30.774-37.334a16.919 16.919 0 0 1-.2-17.332c3.04-5.448 8.572-8.969 14.087-8.969 11.492 0 18.507 10.717 18.577 10.825a.825.825 0 0 0 .724.371.631.631 0 0 0 .08 0 .5.5 0 0 0 .05 0" fill="#222"/></g></g></g></svg>