<svg xmlns="http://www.w3.org/2000/svg" width="131" height="137" viewBox="0 0 131 137"><defs><clipPath id="a"><path data-name="Rectangle 18" fill="#222" d="M0 0h116.35v132.219H0z"/></clipPath></defs><g data-name="Group 359" transform="translate(-562 -3784)"><circle data-name="Ellipse 3" cx="65.5" cy="65.5" r="65.5" transform="translate(562 3790)" fill="#f8ee1e"/><g data-name="Group 13" transform="translate(569.825 3784)" clip-path="url(#a)" fill="#222"><path data-name="Path 16" d="M47.974 58.5c0-16.39-6.8-27.258-13.168-31.963a24.175 24.175 0 0 1-5.4-5.506 11.792 11.792 0 0 0 4.679-9.63c0-6.285-4.53-11.4-10.1-11.4s-10.1 5.114-10.1 11.4a11.792 11.792 0 0 0 4.679 9.63 24.175 24.175 0 0 1-5.4 5.506C6.8 31.24 0 42.108 0 58.5A2.5 2.5 0 0 0 2.5 61h42.974a2.5 2.5 0 0 0 2.5-2.5M22.985 20.477a1 1 0 0 0-.6-1.415c-2.939-.882-4.992-4.034-4.992-7.663 0-4.356 2.959-7.9 6.6-7.9s6.6 3.543 6.6 7.9c0 3.629-2.053 6.781-4.993 7.663a1 1 0 0 0-.6 1.415 26.445 26.445 0 0 0 7.736 8.873C38.278 33.455 44.2 42.974 44.465 57.5H3.507c.262-14.526 6.188-24.045 11.742-28.15a26.456 26.456 0 0 0 7.736-8.873"/><path data-name="Path 17" d="M103.182 97.757a24.2 24.2 0 0 1-5.4-5.507 11.792 11.792 0 0 0 4.679-9.63c0-6.285-4.529-11.4-10.1-11.4s-10.1 5.113-10.1 11.4a11.79 11.79 0 0 0 4.68 9.63 24.231 24.231 0 0 1-5.4 5.507c-6.366 4.7-13.168 15.572-13.168 31.962a2.5 2.5 0 0 0 2.5 2.5h42.977a2.5 2.5 0 0 0 2.5-2.5c0-16.39-6.8-27.257-13.168-31.962m-31.3 30.962c.262-14.523 6.187-24.043 11.741-28.148a26.44 26.44 0 0 0 7.738-8.871 1 1 0 0 0-.6-1.415c-2.939-.882-4.992-4.033-4.992-7.663 0-4.355 2.959-7.9 6.6-7.9s6.6 3.543 6.6 7.9c0 3.63-2.053 6.781-4.992 7.663a1 1 0 0 0-.6 1.415 26.444 26.444 0 0 0 7.738 8.873c5.553 4.106 11.478 13.625 11.74 28.148Z"/><path data-name="Path 18" d="m82.835 65 .206-.008a2.512 2.512 0 0 0 1.754-.939l12.614-15.928a2.5 2.5 0 0 0-2.3-4.028l-7.2.974c-.752-5.077-2.951-14.331-9.2-18.379-7.988-5.176-19.178-4.36-19.645-4.324a2.5 2.5 0 0 0 .192 4.993c8.249 0 13.828 12.922 15.908 18.7L66.93 45.4a2.5 2.5 0 0 0-1.9 4.343L81.157 64.35a2.5 2.5 0 0 0 1.678.65m-4.217-15.155a1 1 0 0 0 1.046-1.255c-.218-.816-4.506-16.479-13.35-22.447a25.729 25.729 0 0 1 10.5 3.486c6.834 4.427 7.912 18.194 7.922 18.332a1 1 0 0 0 1.131.919l7.261-.983-10.414 13.141-13.16-11.918Z"/><path data-name="Path 19" d="M51.874 108.857c-8.249 0-13.828-12.922-15.908-18.7l8.256.661a2.5 2.5 0 0 0 1.885-4.345l-16.13-14.605a2.48 2.48 0 0 0-1.883-.637 2.507 2.507 0 0 0-1.754.938L13.724 88.093a2.5 2.5 0 0 0 2.3 4.029l7.2-.974c.751 5.076 2.951 14.33 9.2 18.379 5.9 3.82 13.479 4.39 17.473 4.39 1.241 0 2.028-.056 2.171-.067a2.5 2.5 0 0 0-.191-4.993m-17.551-2.268c-6.837-4.428-7.914-18.189-7.926-18.332a1 1 0 0 0-1-.928.855.855 0 0 0-.134.01l-7.26.982L28.42 75.18 41.58 87.1l-9.065-.725a.975.975 0 0 0-.848.357 1 1 0 0 0-.2.9c.218.816 4.5 16.473 13.344 22.443a25.742 25.742 0 0 1-10.49-3.482"/></g></g></svg>