<svg xmlns="http://www.w3.org/2000/svg" width="229.528" height="201.835" viewBox="0 0 229.528 201.835"><defs><clipPath id="a"><path data-name="Rectangle 15" fill="#222" d="M0 0h196.933v158.913H0z"/></clipPath></defs><g data-name="Group 357" transform="translate(-1376.236 -2230.91)"><circle data-name="Ellipse 4" cx="86" cy="86" r="86" transform="translate(1405 2252)" fill="#e47b2c"/><g data-name="Group 7"><g data-name="Group 6" transform="rotate(14 -8377.311 6876.281)" clip-path="url(#a)" fill="#222"><path data-name="Path 5" d="M196.092 145.593a1.61 1.61 0 0 0 .841-1.416V48.341a1.607 1.607 0 0 0-.494-1.16l-15.422-14.817c-1.59-2.8-16.4-27.891-38.869-31.916-9.76-1.748-21.083 1.641-32.746 9.8a93.945 93.945 0 0 0-13.69 11.745 30.856 30.856 0 0 0-2.565-1.613h-.008a47.524 47.524 0 0 0-6.413-2.991C75.168 12.933 61.815 12 52.65 12c-16.938 0-28.484 8.612-35.187 15.837A58.329 58.329 0 0 0 6.9 43.643a1.594 1.594 0 0 0-.122.612v11.024L.755 61.526a1.6 1.6 0 0 0-.449 1.1c0 .234-.171 23.6-.255 46.826-.173 47.373.132 47.98.425 48.566a1.6 1.6 0 0 0 1.118.858 1.635 1.635 0 0 0 .321.033 1.611 1.611 0 0 0 1.044-.384c.295-.252 29.745-25.289 42.841-35.363 10.726-8.25 34.181-6.937 41.121-6.341l-3.45 10.349a1.61 1.61 0 0 0 1.6 2.117l37.457-1.7a1.61 1.61 0 0 0 1.521-1.819l-1.294-9.756c4.9.049 18.653.51 27.728 3.98 11.286 4.314 43.638 25.325 43.962 25.537a1.61 1.61 0 0 0 1.646.066M111.3 12.846c13.8-9.64 24.086-10.341 30.278-9.231 20.408 3.656 34.7 27.022 36.542 30.173v85.371c-8.576-5.987-36.206-24.477-50.589-24.663h-.435c-10.133 0-18.066 4.589-22.867 8.349-.746-11.215-2.765-52.115-4.12-80.7a91.706 91.706 0 0 1 11.191-9.299M94.811 25.353a1.6 1.6 0 0 0 2.227-.064c.334 7 1.093 22.82 1.877 38.5a5983.972 5983.972 0 0 0 1.506 29.075c.229 4.176.418 7.412.563 9.623.077 1.2.143 2.117.2 2.739l.02.217c-.563.533-1.019 1-1.361 1.361-.63-.211-1.528-.5-2.649-.849l-3.168-81.209c.519.375.779.6.785.607M9.993 55.928v-11.34a56.854 56.854 0 0 1 9.829-14.561C28.938 20.2 39.983 15.218 52.65 15.218c15.96 0 26.583 2.762 32.683 5.08a46.2 46.2 0 0 1 5.393 2.428L93.932 105c-9.621-2.7-27.452-6.609-42.132-3.671-8.843 1.768-19.062 8.038-30.375 18.634a162.646 162.646 0 0 0-11.432 11.891ZM3.519 63.3l1.4-1.458 1.852 1.852v9.893L3.47 70.28l.049-6.983m-.076 11.067L6.775 77.7v9.89L3.384 84.2l.059-9.835m-.082 13.923L6.775 91.7v9.9l-3.462-3.468c.015-3.279.031-6.571.048-9.844M3.287 104c0-.589 0-1.18.008-1.773L5.068 104l1.707 1.707v9.893l-3.518-3.518.03-8.084m-.041 12.183 3.529 3.531v9.888l-3.549-3.549c0-3.164.01-6.466.02-9.875m.1 37.8c-.048-2.227-.079-5.6-.1-9.788l5.354 5.356a5330.175 5330.175 0 0 0-5.253 4.436m7.485-6.314-7.6-7.6c-.008-3.017-.01-6.341-.008-9.9l3.552 3.554v2.565a1.608 1.608 0 0 0 1.081 1.515 1.581 1.581 0 0 0 .527.089 1.607 1.607 0 0 0 1.263-.611l.309-.382 6.255 6.255c-1.9 1.59-3.707 3.106-5.381 4.514m7.621-6.385-6.619-6.619a162.69 162.69 0 0 1 4.685-5.21l7.335 7.337a2358.32 2358.32 0 0 0-5.4 4.492m7.651-6.356-7.577-7.575a154.848 154.848 0 0 1 4.986-4.909l8.02 8.02c-1.779 1.455-3.6 2.953-5.429 4.464m7.692-6.311-8.14-8.142c1.7-1.534 3.5-3.063 5.351-4.542l8.267 8.268a731.476 731.476 0 0 0-5.478 4.415m10.044-8c-.711.547-1.473 1.139-2.27 1.766l-8.245-8.244c1.914-1.435 3.88-2.8 5.873-4.023l8.242 8.242a24.207 24.207 0 0 0-3.6 2.258m6.418-3.549-8.457-8.453a43.928 43.928 0 0 1 6.818-3.078l9.269 9.271a46.141 46.141 0 0 0-7.63 2.265m11.106-2.9-9.536-9.536c.2-.046.4-.1.6-.145.991-.2 2-.352 3.027-.487 1.7-.222 3.442-.364 5.2-.428l.43.428 9.269 9.269a87.4 87.4 0 0 0-9 .9m12.976-1.029L65.2 104l-.458-.458c2.4.051 4.8.212 7.167.458q1.835.19 3.628.443L84.5 113.4a128.058 128.058 0 0 0-10.16-.265m12.927 12.828 2.449-7.347 6.92 6.922Zm13.3-.6-9.908-9.909a1.568 1.568 0 0 0-.216-.891 1.608 1.608 0 0 0-1.165-.737c-.049 0-.151-.018-.28-.031l-8.568-8.568c5 .905 9.477 2.021 12.863 2.968l16.739 16.739Zm13.4-.609L99.208 110c.341.114.548.188.57.194a1.611 1.611 0 0 0 1.776-.481 33.074 33.074 0 0 1 3.72-3.542l14.907 14.907.448 3.374Zm6.923-11.962a1.609 1.609 0 0 0-1.565 1.821l.229 1.725-11.954-11.959q.267-.19.543-.38a38.353 38.353 0 0 1 5.707-3.264l3.261 3.265 8.853 8.853c-2.9-.1-4.835-.066-5.075-.061m9.4.275L121.221 104l-4.466-4.466a31.083 31.083 0 0 1 8.163-1.732l6.2 6.2 10.344 10.344a108.176 108.176 0 0 0-11.172-1.277m21.345 3.918a44.963 44.963 0 0 0-4.966-1.546L135.226 104l-6.193-6.193c4.081.418 9.187 2.212 14.56 4.665l1.528 1.528 19.523 19.523a112.483 112.483 0 0 0-13.011-6.538m42.082 24.242a838.203 838.203 0 0 0-4.522-2.882c-3.984-2.52-9.243-5.8-14.685-9.068l-22.67-22.668a279.468 279.468 0 0 1 26.655 16.759l10.7 10.7 4.522 4.522Zm0-6.749-4.522-4.522-7.853-7.856v-9.895l7.853 7.853 4.522 4.52Zm0-14-4.522-4.522-7.853-7.856v-9.9l5.8 5.8 2.056 2.056 4.522 4.522Zm0-16.472v2.467L191.249 104l-2.056-2.056-7.853-7.853V84.2l7.853 7.853 4.522 4.522Zm0-11.537-4.522-4.523-7.853-7.853v-9.902l7.853 7.853 4.522 4.522Zm0-14.007-4.522-4.522-7.853-7.853v-9.901l7.853 7.853 4.522 4.523Zm0-14-4.522-4.522-7.853-7.853v-9.908l7.853 7.854 4.522 4.522Zm0-14-4.522-4.522-7.853-7.853v-.933l7.853 7.546 4.522 4.344Z"/><path data-name="Path 6" d="M25.957 49.381a1.612 1.612 0 0 0 1.223-.561c2.012-2.347 9.216-5.906 18.609-7.877 9.909-2.081 18.051-1.536 22.337 1.493a1.61 1.61 0 1 0 1.858-2.629c-2.948-2.082-10.1-5.113-24.856-2.015-9.146 1.919-17.531 5.593-20.393 8.932a1.609 1.609 0 0 0 1.222 2.657"/><path data-name="Path 7" d="M25.957 65.391a1.612 1.612 0 0 0 1.223-.561c2.012-2.347 9.216-5.906 18.609-7.878 9.908-2.079 18.049-1.536 22.337 1.495a1.61 1.61 0 1 0 1.858-2.629c-2.948-2.082-10.1-5.114-24.856-2.015-9.146 1.919-17.531 5.593-20.393 8.932a1.609 1.609 0 0 0 1.222 2.656"/><path data-name="Path 8" d="M25.957 81.401a1.612 1.612 0 0 0 1.223-.561c2.012-2.347 9.216-5.906 18.609-7.877 9.908-2.082 18.05-1.536 22.338 1.493a1.61 1.61 0 1 0 1.858-2.629c-2.948-2.082-10.1-5.113-24.856-2.015-9.146 1.919-17.531 5.593-20.393 8.932a1.609 1.609 0 0 0 1.221 2.657"/><path data-name="Path 9" d="M25.957 97.412a1.612 1.612 0 0 0 1.223-.561c2.012-2.347 9.216-5.906 18.609-7.878 9.908-2.08 18.05-1.535 22.338 1.492a1.61 1.61 0 1 0 1.858-2.629c-2.948-2.082-10.1-5.114-24.856-2.015-9.146 1.919-17.531 5.593-20.393 8.932a1.609 1.609 0 0 0 1.221 2.659"/><path data-name="Path 10" d="M121.725 34.313c2.415-1.929 10.16-4.076 19.756-4.255 10.115-.194 18.018 1.868 21.663 5.646a1.609 1.609 0 1 0 2.316-2.234c-2.505-2.6-8.971-6.9-24.038-6.63-9.343.174-18.268 2.214-21.705 4.958a1.61 1.61 0 1 0 2.008 2.515"/><path data-name="Path 11" d="M118.731 50.039c2.415-1.929 10.16-4.076 19.756-4.255 10.115-.2 18.018 1.87 21.663 5.648a1.61 1.61 0 1 0 2.316-2.235c-2.505-2.6-8.961-6.907-24.04-6.63-9.343.176-18.268 2.214-21.7 4.96a1.609 1.609 0 1 0 2.008 2.514"/><path data-name="Path 12" d="M115.735 65.768c2.415-1.929 10.16-4.076 19.756-4.255 10.117-.181 18.018 1.868 21.663 5.648a1.61 1.61 0 1 0 2.316-2.235c-2.505-2.6-8.953-6.925-24.039-6.63-9.342.174-18.267 2.214-21.7 4.96a1.609 1.609 0 1 0 2.008 2.514"/><path data-name="Path 13" d="M112.739 81.494c2.415-1.929 10.16-4.076 19.756-4.255 10.119-.184 18.018 1.868 21.663 5.648a1.61 1.61 0 1 0 2.316-2.239c-2.505-2.6-8.956-6.905-24.039-6.63-9.342.174-18.268 2.214-21.7 4.96a1.609 1.609 0 1 0 2.008 2.514"/></g></g></g></svg>