<?xml version="1.0" standalone="no"?>
<!DOCTYPE svg PUBLIC "-//W3C//DTD SVG 20010904//EN"
 "http://www.w3.org/TR/2001/REC-SVG-20010904/DTD/svg10.dtd">
<svg version="1.0" xmlns="http://www.w3.org/2000/svg"
 width="152.000000pt" height="152.000000pt" viewBox="0 0 152.000000 152.000000"
 preserveAspectRatio="xMidYMid meet">
<metadata>
Created by potrace 1.14, written by Peter Selinger 2001-2017
</metadata>
<g transform="translate(0.000000,152.000000) scale(0.100000,-0.100000)"
fill="#000000" stroke="none">
<path d="M725 1441 c-6 -5 -24 -12 -42 -14 -40 -6 -55 -15 -47 -29 4 -6 1 -9
-6 -6 -15 5 -43 -19 -53 -46 -4 -10 -12 -14 -18 -10 -8 4 -9 3 -5 -5 4 -6 12
-9 17 -6 5 4 9 1 9 -4 0 -6 -6 -11 -13 -11 -17 0 -23 -110 -7 -120 10 -6 20
-38 22 -67 1 -6 7 -9 15 -6 7 3 13 -1 13 -8 0 -8 14 -22 31 -32 22 -12 29 -22
25 -35 -5 -14 -3 -14 9 2 15 19 15 19 15 -2 0 -12 3 -21 8 -21 4 1 16 1 27 0
17 -1 18 -3 5 -11 -13 -8 -12 -10 3 -10 9 0 17 -5 17 -11 0 -5 4 -8 9 -4 5 3
13 -4 16 -16 6 -17 9 -19 16 -8 6 11 9 8 9 -8 0 -16 4 -21 15 -17 10 4 15 0
15 -15 0 -15 4 -19 17 -14 10 4 14 2 9 -5 -3 -6 -2 -13 4 -17 6 -4 8 -10 5
-15 -3 -4 2 -10 10 -14 8 -3 15 -13 15 -21 0 -10 -5 -13 -12 -9 -10 6 -10 5
-1 -7 15 -19 10 -54 -12 -75 -8 -9 -13 -20 -10 -25 4 -5 0 -6 -8 -3 -8 3 -17
-2 -20 -10 -4 -9 -15 -16 -26 -16 -10 0 -21 -7 -25 -15 -3 -8 -11 -15 -18 -15
-9 0 -9 3 2 10 8 5 11 12 7 16 -4 4 -17 -1 -29 -12 -18 -15 -20 -16 -9 -1 12
16 10 17 -35 17 -32 0 -44 3 -35 9 11 7 9 10 -7 15 -11 4 -23 14 -26 22 -3 8
-10 12 -16 9 -5 -3 -7 0 -4 9 3 9 -2 17 -15 21 -11 3 -20 9 -18 13 2 8 -7 12
-24 12 -5 0 -7 -6 -3 -12 5 -8 2 -8 -10 1 -15 12 -17 12 -14 0 2 -8 -2 -13 -8
-12 -6 1 -11 -5 -11 -13 0 -7 4 -14 9 -14 4 0 8 -7 8 -15 0 -9 7 -18 15 -21 8
-4 15 -15 15 -25 0 -10 6 -19 13 -19 8 0 19 -10 26 -22 9 -19 11 -19 6 -3 -5
19 -4 19 9 3 7 -10 19 -18 25 -18 7 0 9 -5 5 -12 -5 -8 -2 -8 10 1 9 8 16 10
14 5 -2 -5 0 -9 3 -9 4 0 17 -9 30 -20 13 -11 18 -13 12 -4 -10 13 -8 15 17
13 16 -1 33 -5 39 -9 6 -3 11 -2 11 2 0 5 13 8 29 7 18 -1 32 4 35 13 3 8 10
12 16 8 5 -3 18 3 29 14 11 11 22 17 26 13 3 -3 8 4 12 16 3 12 12 22 20 22 8
0 13 6 10 13 -2 6 2 17 9 22 15 11 26 133 13 141 -5 2 -5 12 -2 21 4 11 3 14
-5 9 -7 -4 -13 -2 -13 3 -1 6 -3 16 -4 21 -1 6 -3 15 -4 20 0 6 -7 9 -13 8 -7
-2 -12 3 -10 10 1 6 -5 12 -13 12 -8 0 -15 9 -15 21 0 16 -4 19 -20 14 -15 -5
-18 -3 -14 9 4 11 1 16 -10 16 -9 0 -16 7 -16 15 0 8 -9 15 -20 15 -11 0 -23
7 -26 15 -4 8 -12 15 -20 15 -8 0 -14 5 -14 10 0 6 -7 10 -15 10 -8 0 -15 6
-15 14 0 8 -12 17 -27 21 -21 5 -24 8 -12 16 12 7 11 9 -3 9 -11 0 -18 8 -18
21 0 11 -4 18 -9 15 -5 -3 -12 1 -15 10 -4 10 -2 13 7 8 8 -5 7 -2 -2 9 -10
13 -10 17 -1 17 10 0 10 3 0 15 -10 12 -10 15 0 15 7 0 10 7 6 15 -3 8 0 14 7
12 7 -1 11 3 10 10 -1 6 11 14 27 18 17 4 28 10 26 14 -3 4 1 8 9 8 8 0 12 -5
9 -11 -3 -6 2 -2 12 9 12 14 15 15 11 4 -4 -12 2 -16 26 -17 17 0 37 -8 43
-16 6 -9 16 -16 23 -16 6 0 11 -5 11 -10 0 -6 10 -15 23 -20 20 -8 20 -9 2
-10 -16 0 -17 -2 -5 -10 10 -6 20 -4 31 6 8 7 21 14 27 14 6 0 9 7 6 15 -5 12
-2 13 12 8 18 -7 18 -6 2 11 -10 9 -18 22 -18 27 0 6 -5 7 -12 3 -8 -5 -9 -2
-5 9 5 12 1 17 -13 17 -11 0 -20 7 -20 16 0 8 -4 13 -9 9 -6 -3 -14 2 -18 10
-5 9 -26 17 -47 19 -21 2 -42 10 -47 18 -6 10 -9 10 -9 1 0 -7 -8 -13 -17 -13
-15 0 -16 2 -3 10 8 5 10 10 5 10 -6 0 -15 -4 -20 -9z"/>
<path d="M830 408 c-24 -22 -25 -27 -26 -168 0 -80 3 -147 7 -150 7 -5 200 -5
219 -1 3 1 5 68 5 151 l0 150 -25 10 c-14 5 -41 12 -60 15 -19 3 -49 8 -65 11
-23 4 -37 0 -55 -18z m104 -3 c52 -8 39 -13 -28 -12 -63 2 -81 9 -53 21 6 3
21 3 32 0 11 -3 33 -7 49 -9z"/>
<path d="M1344 423 c8 -15 8 -15 -109 -17 l-80 -1 -1 -50 c-1 -27 -3 -95 -5
-149 -5 -114 -17 -103 123 -108 47 -2 89 0 93 4 4 4 9 71 12 150 4 139 3 145
-18 164 -12 10 -19 13 -15 7z"/>
<path d="M188 382 l-48 -3 -1 -47 c-2 -58 2 -256 5 -259 6 -6 208 -4 214 2 7
7 11 255 4 290 -3 17 -11 20 -65 20 -34 0 -83 -1 -109 -3z"/>
<path d="M479 370 c-4 -43 -4 -277 -1 -287 3 -9 35 -13 113 -13 97 0 109 2
110 18 5 118 2 285 -6 288 -5 2 -56 5 -112 7 -86 2 -103 0 -104 -13z"/>
</g>
</svg>
