<svg xmlns="http://www.w3.org/2000/svg" width="133.824" height="134.968" viewBox="0 0 133.824 134.968"><defs><clipPath id="a"><path data-name="Rectangle 19" fill="#222" d="M0 0h131.647v132.33H0z"/></clipPath></defs><g data-name="Group 361" transform="translate(-1226.176 -3790)"><circle data-name="Ellipse 3" cx="65.5" cy="65.5" r="65.5" transform="translate(1229 3790)" fill="#f8ee1e"/><g data-name="Group 15" transform="translate(1226.176 3792.638)" clip-path="url(#a)" fill="#222"><path data-name="Path 20" d="M69.135 42.142a14.88 14.88 0 1 0 21.043 0 14.783 14.783 0 0 0-21.043 0m19.35 3.949a2.147 2.147 0 0 0-.188.289 13.183 13.183 0 0 0-.14-.189 2.067 2.067 0 0 0 .329-.1m-.991-2.217a.328.328 0 0 1 .464.465.278.278 0 0 1-.464 0 .328.328 0 0 1 0-.465m-1.094-2.4c.3.179.587.37.872.574a2.08 2.08 0 0 0-.943.466 2.1 2.1 0 0 0 .07-1.04m-.694 2a2.034 2.034 0 0 0-.077.323c-.063-.042-.129-.08-.193-.121a2.113 2.113 0 0 0 .27-.2m-1.69-1.756a.328.328 0 0 1 .185-.169.338.338 0 0 1 .113-.02.329.329 0 0 1 .111.637.334.334 0 0 1-.252-.012.32.32 0 0 1-.168-.185.324.324 0 0 1 .011-.252m-.853-1.649a2.1 2.1 0 0 0-.707.765 2.1 2.1 0 0 0-.3-1.01c.339.066.673.153 1 .245m-.961 1.88a2.026 2.026 0 0 0 .041.345c-.077-.019-.152-.041-.23-.058a2.224 2.224 0 0 0 .188-.287m-2.067-1.28a.321.321 0 0 1 .211-.077h.03a.324.324 0 0 1 .222.115.327.327 0 0 1 .076.24.333.333 0 0 1-.356.3.328.328 0 0 1-.183-.578m-1.483-1.032a2.1 2.1 0 0 0-.4.958 2.116 2.116 0 0 0-.607-.836c.335-.051.67-.1 1.008-.122m-.11 2.394c-.077.007-.152.023-.229.033a2.024 2.024 0 0 0 .078-.334 2.129 2.129 0 0 0 .15.3m-2.534-.8a.33.33 0 0 1 .2-.153.336.336 0 0 1 .085-.011.328.328 0 0 1 .085.646.34.34 0 0 1-.249-.032.332.332 0 0 1-.152-.2.327.327 0 0 1 .032-.249m-1.031 1.829c-.068.034-.14.063-.208.1a2.147 2.147 0 0 0-.04-.331 2.083 2.083 0 0 0 .248.232m-.715-2.291a2.092 2.092 0 0 0-.049 1.036 2.1 2.1 0 0 0-.87-.581c.3-.167.608-.315.918-.456m-1.942 2.4a.327.327 0 0 1 .322-.271.438.438 0 0 1 .057 0 .329.329 0 0 1 .212.135.329.329 0 0 1-.08.457.328.328 0 0 1-.511-.326m-.337 2.066c-.057.059-.108.12-.163.179a2.033 2.033 0 0 0-.15-.3 2.148 2.148 0 0 0 .313.117m-1.563-1.825c.032-.032.067-.058.1-.089a2.107 2.107 0 0 0 .309 1 2.094 2.094 0 0 0-1.01-.248c.2-.225.39-.452.6-.664M69.383 55.62c.021.072.039.146.06.218a2.134 2.134 0 0 0-.33-.018 2.18 2.18 0 0 0 .27-.2m-1.516-8.6a2.111 2.111 0 0 0 .633.833 2.108 2.108 0 0 0-1.045.116c.124-.322.263-.637.412-.949m-1.232 4.365a2.11 2.11 0 0 0 .887.574 2.091 2.091 0 0 0-.937.464c.006-.348.018-.7.05-1.038m.655 5.524q-.169-.492-.3-1a2.1 2.1 0 0 0 .976.249h.029a2.1 2.1 0 0 0-.709.75m.71-2.551a.35.35 0 0 1-.24-.076.328.328 0 0 1 .182-.578h.03a.33.33 0 0 1 .326.3.328.328 0 0 1-.3.356m.524-4.319a.327.327 0 0 1-.152.2.339.339 0 0 1-.249.032.328.328 0 0 1 .086-.646.309.309 0 0 1 .085.012.33.33 0 0 1 .2.152.326.326 0 0 1 .032.25m.472 1.873-.012.246a2.083 2.083 0 0 0-.312-.135 2.152 2.152 0 0 0 .324-.111m-.16 5.92a.32.32 0 0 1 .169-.185.32.32 0 0 1 .138-.031.343.343 0 0 1 .113.02.324.324 0 0 1 .185.169.328.328 0 0 1-.41.448.321.321 0 0 1-.185-.169.326.326 0 0 1-.011-.251m.651 3.056a13.168 13.168 0 0 1-.623-.838 1.869 1.869 0 0 0 1.056-.132 2.086 2.086 0 0 0-.423.969m.043-12.6a2.107 2.107 0 0 0 .29.044c.021 0 .042 0 .063-.005-.031.068-.067.133-.1.2a2.1 2.1 0 0 0-.258-.241m.564-1.9a.33.33 0 0 1-.212.134.328.328 0 0 1-.381-.267.331.331 0 0 1 .267-.38.321.321 0 0 1 .245.054.33.33 0 0 1 .08.457m.719 12.86a2.145 2.145 0 0 0 .2-.305c.05.069.1.138.152.205a2.178 2.178 0 0 0-.352.1m1 2.2a.276.276 0 0 1-.464 0 .327.327 0 0 1 0-.464.278.278 0 0 1 .465 0 .328.328 0 0 1 0 .466m1.094 2.4a13.34 13.34 0 0 1-.854-.561 2.1 2.1 0 0 0 .93-.466 2.088 2.088 0 0 0-.069 1.036m.7-1.994a2.05 2.05 0 0 0 .077-.329c.065.043.13.085.2.127a2.113 2.113 0 0 0-.273.2m1.689 1.744a.328.328 0 0 1-.185.169.324.324 0 0 1-.252-.011.33.33 0 0 1-.169-.185.323.323 0 0 1 .012-.249.328.328 0 0 1 .436-.158.334.334 0 0 1 .17.185.33.33 0 0 1-.012.252m.853 1.649a2.11 2.11 0 0 0 .708-.765 2.106 2.106 0 0 0 .3 1.01 12.576 12.576 0 0 1-1-.245m.968-1.884a2.018 2.018 0 0 0-.042-.343c.077.019.154.039.232.057a2.191 2.191 0 0 0-.19.286m2.067 1.288a.321.321 0 0 1-.238.076.329.329 0 0 1-.3-.355.337.337 0 0 1 .356-.3.332.332 0 0 1 .223.116.325.325 0 0 1 .075.24.33.33 0 0 1-.116.223m-5.833-5.71a8.892 8.892 0 1 1 12.576 0 8.9 8.9 0 0 1-12.576 0m7.647 4.3a2.193 2.193 0 0 0-.082.339 2.025 2.025 0 0 0-.155-.305c.079-.008.158-.024.237-.034m-.347 2.434a2.1 2.1 0 0 0 .4-.949 2.108 2.108 0 0 0 .61.827c-.336.052-.672.1-1.01.122m2.648-1.594a.327.327 0 0 1-.2.153.328.328 0 1 1-.169-.634.327.327 0 0 1 .4.232.327.327 0 0 1-.032.249m1.027-1.831c.07-.034.143-.063.213-.1a2.1 2.1 0 0 0 .038.334 2.07 2.07 0 0 0-.251-.235m.719 2.293a2.085 2.085 0 0 0 .05-1.035 2.1 2.1 0 0 0 .87.579c-.3.167-.609.315-.919.456m1.942-2.4a.325.325 0 0 1-.136.212.318.318 0 0 1-.244.054.322.322 0 0 1-.212-.134.328.328 0 1 1 .592-.131m.342-2.071c.055-.057.105-.118.159-.176a2.136 2.136 0 0 0 .155.312 2.146 2.146 0 0 0-.314-.135m1.558 1.83c-.032.032-.067.059-.1.09a2.111 2.111 0 0 0-.322-1.026 2.119 2.119 0 0 0 1 .276h.022c-.2.223-.385.449-.6.662m.848-2.6a.328.328 0 0 1-.538-.376.325.325 0 0 1 .212-.136.331.331 0 0 1 .246.055.328.328 0 0 1 .134.212.325.325 0 0 1-.054.246m-.329-2.31c.032-.069.068-.135.1-.205a2.083 2.083 0 0 0 .24.224 2.089 2.089 0 0 0-.337-.019m.506-7.3c-.023-.079-.043-.159-.068-.239a2.088 2.088 0 0 0 .306.043h.029a2.278 2.278 0 0 0-.267.2m1.513 8.593a2.1 2.1 0 0 0-.641-.837 2.173 2.173 0 0 0 .3.041 2.1 2.1 0 0 0 .753-.158c-.123.323-.265.641-.415.955m1.224-4.365a2.1 2.1 0 0 0-.881-.568 2.113 2.113 0 0 0 .933-.458c-.006.343-.018.685-.051 1.026m-.653-5.506c.109.321.206.645.291.972a2.09 2.09 0 0 0-1.01-.226 2.1 2.1 0 0 0 .719-.746m-.928 2.655a.333.333 0 0 1 .224-.116h.023a.328.328 0 0 1 .029.655.325.325 0 0 1-.24-.076.33.33 0 0 1-.116-.224.324.324 0 0 1 .075-.239m-.3 4.2a.33.33 0 0 1 .153-.2.338.338 0 0 1 .164-.044.329.329 0 0 1 .317.414.328.328 0 0 1-.153.2.322.322 0 0 1-.249.032.33.33 0 0 1-.2-.153.326.326 0 0 1-.032-.249m-.47-1.885c.005-.079.007-.159.012-.24a2.111 2.111 0 0 0 .312.14 2.138 2.138 0 0 0-.324.1m-.01-5.724a.328.328 0 1 1 .159-.437.329.329 0 0 1-.159.437m-.906-2.274a2.109 2.109 0 0 0 .423-.972c.221.273.422.556.618.841a2.1 2.1 0 0 0-1.041.131"/><path data-name="Path 21" d="m.058 130.662.177.416c.02.039.042.08.07.128a2.267 2.267 0 0 0 .33.437 2 2 0 0 0 .184.17 2.247 2.247 0 0 0 .417.272l.406.176.076.005a2.208 2.208 0 0 0 .524.064 2.172 2.172 0 0 0 .54-.068l.209-.06c.42-.149 8.023-2.84 14.327-5.77a2.247 2.247 0 0 0 3.252 2.233 47.438 47.438 0 0 0 7.788-5.068 2.248 2.248 0 0 0 3.783 1.27c1.451-1.4 5.746-5.732 7.685-9.747l2.011 2.011a2.251 2.251 0 0 0 3.542-.465c.656-1.135 6.429-11.2 7.21-15.161.58-2.939 3.768-6.918 6.193-7.784h.045c1.171.579 5.044 4.656 9.684 12.44a2.25 2.25 0 0 0 3.286.647c.337-.253 33.868-25.716 45.348-57.708a776.875 776.875 0 0 0 3.772-10.759c.128-.284.237-.547.321-.783a2 2 0 0 0 .1-.438 2.222 2.222 0 0 0 .282-.845c7.754-22.911 9.968-33.47 10-33.616l.032-.191-.006-.072v-.228a1.843 1.843 0 0 0-.008-.191l.005-.124-.059-.21a1.535 1.535 0 0 0-.14-.337 1.9 1.9 0 0 0-.2-.364 2.007 2.007 0 0 0-.3-.33 1.929 1.929 0 0 0-.317-.258 1.884 1.884 0 0 0-.389-.189 1.518 1.518 0 0 0-.365-.125l-.219-.04-.1.009h-.207a2.181 2.181 0 0 0-.235.01h-.1l-.195.051c-.1.026-10.4 2.807-33.057 10.673a1.462 1.462 0 0 0-.173.061l-.837.279a5.67 5.67 0 0 0-.271.105Q89.276 13 83.221 15.174c-32.052 11.5-57.456 45.011-57.708 45.347a2.25 2.25 0 0 0 .646 3.286c7.818 4.658 11.892 8.537 12.447 9.689v.027c-.856 2.426-4.841 5.625-7.789 6.206-3.9.771-14.018 6.551-15.162 7.209a2.251 2.251 0 0 0-.465 3.541l2.01 2.013c-4.014 1.939-8.347 6.234-9.747 7.686a2.247 2.247 0 0 0 1.279 3.784 48.42 48.42 0 0 0-5.077 7.788 2.266 2.266 0 0 0 .712 2.855 2.243 2.243 0 0 0 1.519.4c-2.925 6.3-5.617 13.9-5.762 14.3a1.522 1.522 0 0 0-.085.377 2 2 0 0 0-.04.389 2.06 2.06 0 0 0 .041.4ZM128.186 3.522c-.86 3.59-3.514 13.889-9.5 31.589-2.938-.234-9.13-5.015-12.8-8.681-3.687-3.687-8.5-9.941-8.683-12.851 17.511-6.071 27.479-9.051 30.981-10.057M104.616 27.7c.091.091 8.37 8.239 13.484 9.131l-.127.375c-4.3 9.3-38.94 53.062-58.953 53.35a2.294 2.294 0 0 0-.39-.022 51.24 51.24 0 0 1-9.7-7.148 51.191 51.191 0 0 1-7.148-9.7 2.23 2.23 0 0 0-.023-.384c.249-20.277 45.269-55.618 53.718-59.119.862 5.112 9.047 13.429 9.138 13.52m10.65 17.28q-.531 1.5-1.088 3.051C104 76.412 75.779 99.655 70.692 103.676c-1.833-3-5.59-8.8-8.868-11.584 17.711-3.118 42.949-32.062 53.441-47.108M40.228 70.5c-2.779-3.277-8.581-7.042-11.585-8.875 4.018-5.085 27.252-33.3 55.641-43.486q1.561-.561 3.063-1.095C72.3 27.536 43.341 52.788 40.228 70.5m.744 5.356a49.738 49.738 0 0 0 6.685 8.805 49.8 49.8 0 0 0 8.806 6.685 15.636 15.636 0 0 0-4.936 4.936C50.2 92.028 45.549 87.8 45 87.318c-.485-.547-4.71-5.2-8.966-6.526a15.631 15.631 0 0 0 4.936-4.934m2.717 12.692c.014.015.032.021.047.034s.021.034.037.049c2.039 1.791 7.128 7.191 6.207 10.637v.011a10.027 10.027 0 0 0-.48 1.613c-.561 2.844-4.716 10.414-6.267 13.173l-12.49-12.489L18.253 89.09c2.759-1.55 10.328-5.706 13.173-6.267a10.076 10.076 0 0 0 1.612-.479h.014c3.44-.915 8.846 4.168 10.636 6.207m-17.617 24.184a.9.9 0 0 0-1.4-.159c-1.5 1.5-7.14 4.217-10.781 5.855 1.638-3.641 4.354-9.281 5.854-10.782a.9.9 0 0 0-.159-1.4 1.238 1.238 0 0 0-.914-.194 14.24 14.24 0 0 1 3.72-3.451.9.9 0 0 0 .2-1.424 1.369 1.369 0 0 0-1.231-.374c1.769-1.452 3.288-2.375 3.819-2.247l4.29 4.29 4.291 4.292c.131.535-.792 2.051-2.246 3.82a1.381 1.381 0 0 0-.375-1.232.9.9 0 0 0-1.423.2 14.271 14.271 0 0 1-3.451 3.72 1.255 1.255 0 0 0-.194-.914m5.757 2.486a.9.9 0 0 0-.66.489c-1.4 2.826-4.639 5.477-7.4 7.359a5.755 5.755 0 0 0 .77-1.9l2.243-3.262-2.613 1.621a.892.892 0 0 0-.508-.249.915.915 0 0 0-.723.26c-2.815 2.815-14.634 7.353-19.19 9.035 1.681-4.556 6.218-16.376 9.035-19.191a.9.9 0 0 0 .259-.724.881.881 0 0 0-.247-.505l1.637-2.637-3.289 2.266a5.821 5.821 0 0 0-1.894.77c1.882-2.761 4.532-6 7.363-7.4a.9.9 0 0 0 .375-1.262l1.758-1.461-3.027.8a8.439 8.439 0 0 0-3.024.321c3.353-2.94 7.224-5.573 8.7-4.767l2.352 2.351c-1.443.57-3.593 2-6.749 5.255a.9.9 0 0 0 1.039 1.437c.1-.05.2-.1.309-.146a34.32 34.32 0 0 0-4.075 5.612.9.9 0 0 0 1.433 1.068l.3-.3c-2.221 4-4.556 9.459-4.693 9.777v.009a.912.912 0 0 0-.055.267c0 .026-.015.052-.015.077a.785.785 0 0 0 .015.077.924.924 0 0 0 .055.267v.008a.91.91 0 0 0 .167.253c.018.019.04.033.059.051a.93.93 0 0 0 .208.143c.016.007.026.022.042.028s.024 0 .036.008a.8.8 0 0 0 .632 0c.012 0 .024 0 .037-.008.32-.136 5.782-2.472 9.779-4.694l-.3.3a.9.9 0 0 0 1.069 1.433 34.238 34.238 0 0 0 5.612-4.075c-.048.1-.1.207-.146.309a.9.9 0 0 0 1.437 1.039c3.254-3.155 4.684-5.305 5.254-6.749l2.352 2.352c.8 1.474-1.828 5.35-4.767 8.7a8.321 8.321 0 0 0 .313-3.06l.758-2.93-1.413 1.7a.9.9 0 0 0-.606-.115M130.283 2.173Zm-.935-.809Z"/></g></g></svg>