<svg xmlns="http://www.w3.org/2000/svg" width="139.737" height="131" viewBox="0 0 139.737 131"><defs><clipPath id="a"><path data-name="Rectangle 21" fill="none" d="M0 0h139.737v124.07H0z"/></clipPath></defs><g data-name="Group 358" transform="translate(-227 -3790)"><circle data-name="Ellipse 3" cx="65.5" cy="65.5" r="65.5" transform="translate(228 3790)" fill="#f8ee1e"/><g data-name="Group 19" transform="translate(227 3796.768)" clip-path="url(#a)"><path data-name="Path 23" d="M103.321.219C86.162-1.36 74.957 5.925 69.869 13.43 64.778 5.921 53.575-1.364 36.416.22 22.5 1.5 4.884 9.754 1 28.8c-6.726 33.012 20.8 60.746 67.386 94.79a1.681 1.681 0 0 0 .3.177c.058.032.118.061.187.092a2.378 2.378 0 0 0 1.987-.005 2.7 2.7 0 0 0 .179-.089l.3-.173c46.589-34.046 74.114-61.78 67.389-94.792C134.853 9.753 117.232 1.5 103.321.219M68.942 19.092v.007a.982.982 0 0 0 .166.252.872.872 0 0 0 .05.074l.01.007a1.01 1.01 0 0 0 .315.208h.006a1.129 1.129 0 0 0 .116.022.743.743 0 0 0 .536 0 .805.805 0 0 0 .1-.018h.006a1.163 1.163 0 0 0 .541-.541v-.007C75.743 6.87 90.535 2.56 103 3.7c12.716 1.171 28.807 8.629 32.3 25.792 6.323 31.044-20.326 57.805-65.434 90.833C24.759 87.3-1.889 60.54 4.434 29.5 7.93 12.333 24.02 4.876 36.737 3.7c12.475-1.139 27.258 3.17 32.205 15.392"/></g></g></svg>