<svg xmlns="http://www.w3.org/2000/svg" width="131" height="131" viewBox="0 0 131 131"><defs><clipPath id="a"><path data-name="Rectangle 20" fill="#222" d="M0 0h113.795v112.278H0z"/></clipPath></defs><g data-name="Group 362" transform="translate(-1562 -3790)"><circle data-name="Ellipse 3" cx="65.5" cy="65.5" r="65.5" transform="translate(1562 3790)" fill="#f8ee1e"/><g data-name="Group 18"><g data-name="Group 17" clip-path="url(#a)" transform="translate(1571.867 3803.941)"><path data-name="Path 22" d="M79.665 2.163A2.165 2.165 0 0 0 77.5 0H2.163A2.165 2.165 0 0 0 0 2.163v64.973A2.165 2.165 0 0 0 2.163 69.3h13.68l11.351 29.706a2.163 2.163 0 0 0 4.181-.679l1.173-27h13.464v10.726a2.165 2.165 0 0 0 2.163 2.163H75.3l-.466 25.862a2.163 2.163 0 0 0 4.026 1.135l15.3-25.985h17.472a2.165 2.165 0 0 0 2.163-2.163v-64a2.165 2.165 0 0 0-2.163-2.163H79.665ZM78.12 81.447a.865.865 0 0 0-.618-.26H49.041V70.009l28.476-.491a.866.866 0 0 0 .85-.865v-48.72h32.4V82.2H92.923a.865.865 0 0 0-.745.427l-14.257 24.214.446-24.772a.863.863 0 0 0-.247-.621M3.028 3.028h73.609V67.8l-28.476.491H30.478a.865.865 0 0 0-.864.827l-1.082 24.9-10.391-27.19a.866.866 0 0 0-.809-.556H3.028Z" fill="#222"/></g></g></g></svg>